{
	"asset":{
		"generator":"Khronos glTF Blender I/O v4.3.47",
		"version":"2.0"
	},
	"scene":0,
	"scenes":[
		{
			"name":"Scene",
			"nodes":[
				0,
				1,
				2,
				3,
				4
			]
		}
	],
	"nodes":[
		{
			"mesh":0,
			"name":"Cube.001",
			"scale":[
				0.3820441961288452,
				0.3820441961288452,
				0.3820441961288452
			],
			"translation":[
				8.17934799194336,
				-0.6416180729866028,
				-3.2681102752685547
			]
		},
		{
			"mesh":1,
			"name":"Cube.002",
			"scale":[
				0.3820441961288452,
				0.3820441961288452,
				0.3820441961288452
			],
			"translation":[
				8.147491455078125,
				-0.4129639267921448,
				0.7734909057617188
			]
		},
		{
			"mesh":2,
			"name":"Cube.003",
			"scale":[
				0.3820441961288452,
				0.3820441961288452,
				0.3820441961288452
			],
			"translation":[
				8.301034927368164,
				-0.6716952919960022,
				3.142963171005249
			]
		},
		{
			"mesh":3,
			"name":"Cylinder",
			"scale":[
				0.4236314296722412,
				0.4236314296722412,
				0.4236314296722412
			],
			"translation":[
				9.097555160522461,
				-0.5944109559059143,
				-0.9685340523719788
			]
		},
		{
			"mesh":4,
			"name":"Plane",
			"scale":[
				4.601354122161865,
				4.601354122161865,
				4.601354122161865
			],
			"translation":[
				8.528291702270508,
				-1.088196873664856,
				0
			]
		}
	],
	"materials":[
		{
			"doubleSided":true,
			"name":"Material",
			"pbrMetallicRoughness":{
				"baseColorTexture":{
					"index":0
				},
				"metallicFactor":0,
				"roughnessFactor":0.5
			}
		}
	],
	"meshes":[
		{
			"name":"Cube.001",
			"primitives":[
				{
					"attributes":{
						"POSITION":0,
						"NORMAL":1,
						"TEXCOORD_0":2
					},
					"indices":3,
					"material":0
				}
			]
		},
		{
			"name":"Cube.002",
			"primitives":[
				{
					"attributes":{
						"POSITION":4,
						"NORMAL":5,
						"TEXCOORD_0":6
					},
					"indices":3,
					"material":0
				}
			]
		},
		{
			"name":"Cube.003",
			"primitives":[
				{
					"attributes":{
						"POSITION":7,
						"NORMAL":8,
						"TEXCOORD_0":9
					},
					"indices":3,
					"material":0
				}
			]
		},
		{
			"name":"Cylinder",
			"primitives":[
				{
					"attributes":{
						"POSITION":10,
						"NORMAL":11,
						"TEXCOORD_0":12
					},
					"indices":13,
					"material":0
				}
			]
		},
		{
			"name":"Plane",
			"primitives":[
				{
					"attributes":{
						"POSITION":14,
						"NORMAL":15,
						"TEXCOORD_0":16
					},
					"indices":17,
					"material":0
				}
			]
		}
	],
	"textures":[
		{
			"sampler":0,
			"source":0
		}
	],
	"images":[
		{
			"mimeType":"image/jpeg",
			"name":"uv_debug",
			"uri":"uv_debug.jpg"
		}
	],
	"accessors":[
		{
			"bufferView":0,
			"componentType":5126,
			"count":24,
			"max":[
				1,
				1,
				1
			],
			"min":[
				-1,
				-1,
				-1
			],
			"type":"VEC3"
		},
		{
			"bufferView":1,
			"componentType":5126,
			"count":24,
			"type":"VEC3"
		},
		{
			"bufferView":2,
			"componentType":5126,
			"count":24,
			"type":"VEC2"
		},
		{
			"bufferView":3,
			"componentType":5123,
			"count":36,
			"type":"SCALAR"
		},
		{
			"bufferView":4,
			"componentType":5126,
			"count":24,
			"max":[
				1,
				1,
				1
			],
			"min":[
				-1,
				-1,
				-1
			],
			"type":"VEC3"
		},
		{
			"bufferView":5,
			"componentType":5126,
			"count":24,
			"type":"VEC3"
		},
		{
			"bufferView":6,
			"componentType":5126,
			"count":24,
			"type":"VEC2"
		},
		{
			"bufferView":7,
			"componentType":5126,
			"count":24,
			"max":[
				1,
				1,
				1
			],
			"min":[
				-1,
				-1,
				-1
			],
			"type":"VEC3"
		},
		{
			"bufferView":8,
			"componentType":5126,
			"count":24,
			"type":"VEC3"
		},
		{
			"bufferView":9,
			"componentType":5126,
			"count":24,
			"type":"VEC2"
		},
		{
			"bufferView":10,
			"componentType":5126,
			"count":130,
			"max":[
				1,
				1,
				1
			],
			"min":[
				-1,
				-1,
				-1
			],
			"type":"VEC3"
		},
		{
			"bufferView":11,
			"componentType":5126,
			"count":130,
			"type":"VEC3"
		},
		{
			"bufferView":12,
			"componentType":5126,
			"count":130,
			"type":"VEC2"
		},
		{
			"bufferView":13,
			"componentType":5123,
			"count":372,
			"type":"SCALAR"
		},
		{
			"bufferView":14,
			"componentType":5126,
			"count":4,
			"max":[
				1,
				0,
				1
			],
			"min":[
				-1,
				0,
				-1
			],
			"type":"VEC3"
		},
		{
			"bufferView":15,
			"componentType":5126,
			"count":4,
			"type":"VEC3"
		},
		{
			"bufferView":16,
			"componentType":5126,
			"count":4,
			"type":"VEC2"
		},
		{
			"bufferView":17,
			"componentType":5123,
			"count":6,
			"type":"SCALAR"
		}
	],
	"bufferViews":[
		{
			"buffer":0,
			"byteLength":288,
			"byteOffset":0,
			"target":34962
		},
		{
			"buffer":0,
			"byteLength":288,
			"byteOffset":288,
			"target":34962
		},
		{
			"buffer":0,
			"byteLength":192,
			"byteOffset":576,
			"target":34962
		},
		{
			"buffer":0,
			"byteLength":72,
			"byteOffset":768,
			"target":34963
		},
		{
			"buffer":0,
			"byteLength":288,
			"byteOffset":840,
			"target":34962
		},
		{
			"buffer":0,
			"byteLength":288,
			"byteOffset":1128,
			"target":34962
		},
		{
			"buffer":0,
			"byteLength":192,
			"byteOffset":1416,
			"target":34962
		},
		{
			"buffer":0,
			"byteLength":288,
			"byteOffset":1608,
			"target":34962
		},
		{
			"buffer":0,
			"byteLength":288,
			"byteOffset":1896,
			"target":34962
		},
		{
			"buffer":0,
			"byteLength":192,
			"byteOffset":2184,
			"target":34962
		},
		{
			"buffer":0,
			"byteLength":1560,
			"byteOffset":2376,
			"target":34962
		},
		{
			"buffer":0,
			"byteLength":1560,
			"byteOffset":3936,
			"target":34962
		},
		{
			"buffer":0,
			"byteLength":1040,
			"byteOffset":5496,
			"target":34962
		},
		{
			"buffer":0,
			"byteLength":744,
			"byteOffset":6536,
			"target":34963
		},
		{
			"buffer":0,
			"byteLength":48,
			"byteOffset":7280,
			"target":34962
		},
		{
			"buffer":0,
			"byteLength":48,
			"byteOffset":7328,
			"target":34962
		},
		{
			"buffer":0,
			"byteLength":32,
			"byteOffset":7376,
			"target":34962
		},
		{
			"buffer":0,
			"byteLength":12,
			"byteOffset":7408,
			"target":34963
		}
	],
	"samplers":[
		{
			"magFilter":9729,
			"minFilter":9987
		}
	],
	"buffers":[
		{
			"byteLength":7420,
			"uri":"test.bin"
		}
	]
}
