{
	"asset":{
		"generator":"Khronos glTF Blender I/O v4.3.47",
		"version":"2.0"
	},
	"scene":0,
	"scenes":[
		{
			"name":"Scene",
			"nodes":[
				0,
				1,
				2,
				3,
				4,
				5,
				6,
				7,
				8
			]
		}
	],
	"nodes":[
		{
			"mesh":0,
			"name":"Cube.001",
			"scale":[
				0.3820441961288452,
				0.3820441961288452,
				0.3820441961288452
			],
			"translation":[
				11.181587219238281,
				-0.6416180729866028,
				-6.827274322509766
			]
		},
		{
			"mesh":1,
			"name":"Cube.002",
			"scale":[
				0.3820441961288452,
				0.3820441961288452,
				0.3820441961288452
			],
			"translation":[
				3.1805057525634766,
				-0.4129639267921448,
				-0.9866156578063965
			]
		},
		{
			"mesh":2,
			"name":"Cube.003",
			"scale":[
				0.3820441961288452,
				0.3820441961288452,
				0.3820441961288452
			],
			"translation":[
				11.777942657470703,
				-0.6716952919960022,
				9.709190368652344
			]
		},
		{
			"mesh":3,
			"name":"Cylinder",
			"scale":[
				0.4236314296722412,
				0.4236314296722412,
				0.4236314296722412
			],
			"translation":[
				-8.284500122070312,
				-0.5944109559059143,
				5.902999401092529
			]
		},
		{
			"mesh":4,
			"name":"Cube.004",
			"scale":[
				0.3820441961288452,
				0.3820441961288452,
				0.3820441961288452
			],
			"translation":[
				-8.837305068969727,
				-0.6416180729866028,
				-9.937005996704102
			]
		},
		{
			"mesh":5,
			"name":"Cube.005",
			"scale":[
				0.3820441961288452,
				0.3820441961288452,
				0.3820441961288452
			],
			"translation":[
				-7.097075939178467,
				-0.4129639267921448,
				-2.140683650970459
			]
		},
		{
			"mesh":6,
			"name":"Cube.006",
			"scale":[
				0.3820441961288452,
				0.3820441961288452,
				0.3820441961288452
			],
			"translation":[
				2.207975387573242,
				-0.6716952919960022,
				5.540843963623047
			]
		},
		{
			"mesh":7,
			"name":"Cylinder.001",
			"scale":[
				0.4236314296722412,
				0.4236314296722412,
				0.4236314296722412
			],
			"translation":[
				4.604464530944824,
				-0.5944109559059143,
				-8.788597106933594
			]
		},
		{
			"mesh":8,
			"name":"Cube",
			"scale":[
				91.30108642578125,
				0.6665462255477905,
				91.30108642578125
			],
			"translation":[
				0,
				-1.6635358333587646,
				0
			]
		}
	],
	"materials":[
		{
			"doubleSided":true,
			"name":"Material",
			"pbrMetallicRoughness":{
				"baseColorTexture":{
					"index":0
				},
				"metallicFactor":0,
				"roughnessFactor":0.5
			}
		},
		{
			"doubleSided":true,
			"name":"Material.001",
			"pbrMetallicRoughness":{
				"baseColorTexture":{
					"index":1
				},
				"metallicFactor":0,
				"roughnessFactor":0.5
			}
		}
	],
	"meshes":[
		{
			"name":"Cube.001",
			"primitives":[
				{
					"attributes":{
						"POSITION":0,
						"NORMAL":1,
						"TEXCOORD_0":2
					},
					"indices":3,
					"material":0
				}
			]
		},
		{
			"name":"Cube.002",
			"primitives":[
				{
					"attributes":{
						"POSITION":4,
						"NORMAL":5,
						"TEXCOORD_0":6
					},
					"indices":3,
					"material":0
				}
			]
		},
		{
			"name":"Cube.003",
			"primitives":[
				{
					"attributes":{
						"POSITION":7,
						"NORMAL":8,
						"TEXCOORD_0":9
					},
					"indices":3,
					"material":0
				}
			]
		},
		{
			"name":"Cylinder",
			"primitives":[
				{
					"attributes":{
						"POSITION":10,
						"NORMAL":11,
						"TEXCOORD_0":12
					},
					"indices":13,
					"material":0
				}
			]
		},
		{
			"name":"Cube.005",
			"primitives":[
				{
					"attributes":{
						"POSITION":14,
						"NORMAL":15,
						"TEXCOORD_0":16
					},
					"indices":3,
					"material":0
				}
			]
		},
		{
			"name":"Cube.006",
			"primitives":[
				{
					"attributes":{
						"POSITION":17,
						"NORMAL":18,
						"TEXCOORD_0":19
					},
					"indices":3,
					"material":0
				}
			]
		},
		{
			"name":"Cube.007",
			"primitives":[
				{
					"attributes":{
						"POSITION":20,
						"NORMAL":21,
						"TEXCOORD_0":22
					},
					"indices":3,
					"material":0
				}
			]
		},
		{
			"name":"Cylinder.001",
			"primitives":[
				{
					"attributes":{
						"POSITION":23,
						"NORMAL":24,
						"TEXCOORD_0":25
					},
					"indices":13,
					"material":0
				}
			]
		},
		{
			"name":"Cube.004",
			"primitives":[
				{
					"attributes":{
						"POSITION":26,
						"NORMAL":27,
						"TEXCOORD_0":28
					},
					"indices":3,
					"material":1
				}
			]
		}
	],
	"textures":[
		{
			"sampler":0,
			"source":0
		},
		{
			"sampler":0,
			"source":1
		}
	],
	"images":[
		{
			"mimeType":"image/jpeg",
			"name":"cyber_texture",
			"uri":"cyber_texture.jpg"
		},
		{
			"mimeType":"image/jpeg",
			"name":"concrete_texture",
			"uri":"concrete_texture.jpg"
		}
	],
	"accessors":[
		{
			"bufferView":0,
			"componentType":5126,
			"count":24,
			"max":[
				1,
				1,
				1
			],
			"min":[
				-1,
				-1,
				-1
			],
			"type":"VEC3"
		},
		{
			"bufferView":1,
			"componentType":5126,
			"count":24,
			"type":"VEC3"
		},
		{
			"bufferView":2,
			"componentType":5126,
			"count":24,
			"type":"VEC2"
		},
		{
			"bufferView":3,
			"componentType":5123,
			"count":36,
			"type":"SCALAR"
		},
		{
			"bufferView":4,
			"componentType":5126,
			"count":24,
			"max":[
				1,
				1,
				1
			],
			"min":[
				-1,
				-1,
				-1
			],
			"type":"VEC3"
		},
		{
			"bufferView":5,
			"componentType":5126,
			"count":24,
			"type":"VEC3"
		},
		{
			"bufferView":6,
			"componentType":5126,
			"count":24,
			"type":"VEC2"
		},
		{
			"bufferView":7,
			"componentType":5126,
			"count":24,
			"max":[
				1,
				1,
				1
			],
			"min":[
				-1,
				-1,
				-1
			],
			"type":"VEC3"
		},
		{
			"bufferView":8,
			"componentType":5126,
			"count":24,
			"type":"VEC3"
		},
		{
			"bufferView":9,
			"componentType":5126,
			"count":24,
			"type":"VEC2"
		},
		{
			"bufferView":10,
			"componentType":5126,
			"count":130,
			"max":[
				1,
				1,
				1
			],
			"min":[
				-1,
				-1,
				-1
			],
			"type":"VEC3"
		},
		{
			"bufferView":11,
			"componentType":5126,
			"count":130,
			"type":"VEC3"
		},
		{
			"bufferView":12,
			"componentType":5126,
			"count":130,
			"type":"VEC2"
		},
		{
			"bufferView":13,
			"componentType":5123,
			"count":372,
			"type":"SCALAR"
		},
		{
			"bufferView":14,
			"componentType":5126,
			"count":24,
			"max":[
				1,
				1,
				1
			],
			"min":[
				-1,
				-1,
				-1
			],
			"type":"VEC3"
		},
		{
			"bufferView":15,
			"componentType":5126,
			"count":24,
			"type":"VEC3"
		},
		{
			"bufferView":16,
			"componentType":5126,
			"count":24,
			"type":"VEC2"
		},
		{
			"bufferView":17,
			"componentType":5126,
			"count":24,
			"max":[
				1,
				1,
				1
			],
			"min":[
				-1,
				-1,
				-1
			],
			"type":"VEC3"
		},
		{
			"bufferView":18,
			"componentType":5126,
			"count":24,
			"type":"VEC3"
		},
		{
			"bufferView":19,
			"componentType":5126,
			"count":24,
			"type":"VEC2"
		},
		{
			"bufferView":20,
			"componentType":5126,
			"count":24,
			"max":[
				1,
				1,
				1
			],
			"min":[
				-1,
				-1,
				-1
			],
			"type":"VEC3"
		},
		{
			"bufferView":21,
			"componentType":5126,
			"count":24,
			"type":"VEC3"
		},
		{
			"bufferView":22,
			"componentType":5126,
			"count":24,
			"type":"VEC2"
		},
		{
			"bufferView":23,
			"componentType":5126,
			"count":130,
			"max":[
				1,
				1,
				1
			],
			"min":[
				-1,
				-1,
				-1
			],
			"type":"VEC3"
		},
		{
			"bufferView":24,
			"componentType":5126,
			"count":130,
			"type":"VEC3"
		},
		{
			"bufferView":25,
			"componentType":5126,
			"count":130,
			"type":"VEC2"
		},
		{
			"bufferView":26,
			"componentType":5126,
			"count":24,
			"max":[
				6.64372444152832,
				1,
				6.64372444152832
			],
			"min":[
				-6.64372444152832,
				-1,
				-6.64372444152832
			],
			"type":"VEC3"
		},
		{
			"bufferView":27,
			"componentType":5126,
			"count":24,
			"type":"VEC3"
		},
		{
			"bufferView":28,
			"componentType":5126,
			"count":24,
			"type":"VEC2"
		}
	],
	"bufferViews":[
		{
			"buffer":0,
			"byteLength":288,
			"byteOffset":0,
			"target":34962
		},
		{
			"buffer":0,
			"byteLength":288,
			"byteOffset":288,
			"target":34962
		},
		{
			"buffer":0,
			"byteLength":192,
			"byteOffset":576,
			"target":34962
		},
		{
			"buffer":0,
			"byteLength":72,
			"byteOffset":768,
			"target":34963
		},
		{
			"buffer":0,
			"byteLength":288,
			"byteOffset":840,
			"target":34962
		},
		{
			"buffer":0,
			"byteLength":288,
			"byteOffset":1128,
			"target":34962
		},
		{
			"buffer":0,
			"byteLength":192,
			"byteOffset":1416,
			"target":34962
		},
		{
			"buffer":0,
			"byteLength":288,
			"byteOffset":1608,
			"target":34962
		},
		{
			"buffer":0,
			"byteLength":288,
			"byteOffset":1896,
			"target":34962
		},
		{
			"buffer":0,
			"byteLength":192,
			"byteOffset":2184,
			"target":34962
		},
		{
			"buffer":0,
			"byteLength":1560,
			"byteOffset":2376,
			"target":34962
		},
		{
			"buffer":0,
			"byteLength":1560,
			"byteOffset":3936,
			"target":34962
		},
		{
			"buffer":0,
			"byteLength":1040,
			"byteOffset":5496,
			"target":34962
		},
		{
			"buffer":0,
			"byteLength":744,
			"byteOffset":6536,
			"target":34963
		},
		{
			"buffer":0,
			"byteLength":288,
			"byteOffset":7280,
			"target":34962
		},
		{
			"buffer":0,
			"byteLength":288,
			"byteOffset":7568,
			"target":34962
		},
		{
			"buffer":0,
			"byteLength":192,
			"byteOffset":7856,
			"target":34962
		},
		{
			"buffer":0,
			"byteLength":288,
			"byteOffset":8048,
			"target":34962
		},
		{
			"buffer":0,
			"byteLength":288,
			"byteOffset":8336,
			"target":34962
		},
		{
			"buffer":0,
			"byteLength":192,
			"byteOffset":8624,
			"target":34962
		},
		{
			"buffer":0,
			"byteLength":288,
			"byteOffset":8816,
			"target":34962
		},
		{
			"buffer":0,
			"byteLength":288,
			"byteOffset":9104,
			"target":34962
		},
		{
			"buffer":0,
			"byteLength":192,
			"byteOffset":9392,
			"target":34962
		},
		{
			"buffer":0,
			"byteLength":1560,
			"byteOffset":9584,
			"target":34962
		},
		{
			"buffer":0,
			"byteLength":1560,
			"byteOffset":11144,
			"target":34962
		},
		{
			"buffer":0,
			"byteLength":1040,
			"byteOffset":12704,
			"target":34962
		},
		{
			"buffer":0,
			"byteLength":288,
			"byteOffset":13744,
			"target":34962
		},
		{
			"buffer":0,
			"byteLength":288,
			"byteOffset":14032,
			"target":34962
		},
		{
			"buffer":0,
			"byteLength":192,
			"byteOffset":14320,
			"target":34962
		}
	],
	"samplers":[
		{
			"magFilter":9729,
			"minFilter":9987
		}
	],
	"buffers":[
		{
			"byteLength":14512,
			"uri":"arena.bin"
		}
	]
}
